<?xml version="1.0" encoding="UTF-8"?>
<svg id="Layer_1" data-name="Layer 1" xmlns="http://www.w3.org/2000/svg" viewBox="0 0 911.86 420.2">
  <defs>
    <style>
      .cls-1 {
        letter-spacing: .02em;
      }

      .cls-2 {
        letter-spacing: 0em;
      }

      .cls-3 {
        font-family: MyriadPro-Regular, 'Myriad Pro';
        font-size: 12px;
      }

      .cls-4 {
        letter-spacing: 0em;
      }

      .cls-5 {
        letter-spacing: 0em;
      }

      .cls-6 {
        letter-spacing: .02em;
      }

      .cls-7 {
        letter-spacing: 0em;
      }

      .cls-8 {
        letter-spacing: 0em;
      }

      .cls-9 {
        letter-spacing: 0em;
      }

      .cls-10 {
        letter-spacing: 0em;
      }

      .cls-11 {
        letter-spacing: .02em;
      }

      .cls-12 {
        letter-spacing: 0em;
      }

      .cls-13 {
        letter-spacing: .01em;
      }

      .cls-14 {
        fill: #baa360;
      }

      .cls-15 {
        letter-spacing: -.01em;
      }

      .cls-16 {
        letter-spacing: 0em;
      }
    </style>
  </defs>
  <g>
    <path class="cls-14" d="M95.93,82.67s-1.47-.57-4.01-1.64c-1.26-.59-2.85-1.05-4.63-1.71-1.76-.69-3.83-1.24-6.05-1.91-.55-.17-1.12-.34-1.7-.51-.59-.14-1.18-.28-1.79-.42-1.21-.29-2.46-.6-3.75-.91-1.29-.29-2.63-.49-3.99-.74-1.36-.24-2.74-.54-4.17-.68-1.42-.18-2.87-.38-4.33-.57-1.46-.16-2.96-.23-4.45-.36-.75-.06-1.5-.12-2.25-.18-.75-.04-1.51-.04-2.27-.06-1.52-.04-3.04-.08-4.57-.12-1.53,.04-3.06,.08-4.58,.12-.77,.03-1.54,.03-2.3,.07-.75,.06-1.5,.12-2.24,.18-1.49,.13-2.97,.21-4.43,.36-1.46,.19-2.91,.38-4.33,.57-1.43,.14-2.81,.45-4.17,.68-1.36,.26-2.7,.45-3.99,.74-1.29,.31-2.54,.61-3.75,.91-.61,.14-1.2,.28-1.79,.42-.58,.17-1.14,.34-1.7,.51-2.22,.67-4.28,1.22-6.05,1.91-1.78,.66-3.38,1.13-4.62,1.71-2.53,1.06-4.01,1.64-4.01,1.64,0,0,1.35-.87,3.75-2.33,1.19-.78,2.71-1.5,4.45-2.38,.44-.22,.88-.44,1.35-.67,.23-.12,.47-.23,.7-.35,.24-.1,.49-.21,.74-.31,1.01-.41,2.06-.84,3.16-1.29,.55-.22,1.12-.45,1.69-.69,.58-.2,1.18-.4,1.78-.6,1.22-.39,2.47-.8,3.77-1.21,1.3-.39,2.65-.69,4.03-1.05,1.38-.35,2.79-.71,4.24-.93,1.45-.25,2.92-.51,4.42-.76,1.5-.22,3.04-.34,4.58-.51,.77-.08,1.55-.16,2.33-.23,.77-.06,1.54-.06,2.31-.1,1.55-.05,3.11-.1,4.67-.16,1.56,.05,3.13,.1,4.69,.16,.78,.03,1.56,.04,2.33,.1,.77,.08,1.54,.16,2.31,.23,1.53,.16,3.06,.29,4.56,.51,1.49,.26,2.97,.51,4.42,.77,1.45,.22,2.86,.58,4.24,.94,1.38,.36,2.73,.66,4.03,1.05,1.29,.42,2.55,.82,3.77,1.21,.61,.2,1.2,.41,1.78,.6,.57,.23,1.14,.46,1.69,.69,1.1,.45,2.16,.88,3.16,1.29,.25,.11,.5,.21,.74,.31,.24,.12,.47,.24,.71,.35,.46,.23,.92,.46,1.35,.68,1.74,.88,3.27,1.61,4.45,2.37,2.39,1.45,3.75,2.32,3.75,2.32Z"/>
    <g>
      <polygon class="cls-14" points="33.74 44.4 33.74 5.6 25.27 9.03 25.27 40.97 26.07 41.3 33.74 44.4"/>
      <path class="cls-14" d="M41.22,47.42v24.07c2.08-.14,4.17-.22,6.28-.23V32.33l2.23-.9,7.16-2.9,1.16-.47,.38-.15,3.38-1.37,6.78-2.74,1.32-.53V9.03L47.59,0l-9.83,3.98V46.03l1.22,.49,2.23,.9Z"/>
      <path class="cls-14" d="M58.05,71.73V31.92l-6.98,2.82v36.55c2.34,.06,4.67,.21,6.98,.43Z"/>
      <path class="cls-14" d="M88.71,79.39h.08V34.74l-18.86-7.63h-.02s-8.11,3.29-8.11,3.29v41.74c9.37,1.23,18.39,3.7,26.9,7.24Z"/>
      <path class="cls-14" d="M15.46,76.49v-28.13l-3.66,1.47v27.92c1.21-.45,2.43-.87,3.66-1.27Z"/>
      <path class="cls-14" d="M37.64,71.79v-21.95l-3.91-1.58-8.47-3.43-.54-.21-5.69,2.31v28.47c6.02-1.74,12.24-2.95,18.61-3.59Z"/>
    </g>
  </g>
  <text class="cls-3"><tspan x="788.67" y="388.4" xml:space="preserve">  displ</tspan><tspan class="cls-16" x="817.74" y="388.4">a</tspan><tspan class="cls-1" x="823.43" y="388.4">y</tspan><tspan x="829.37" y="388.4">: fl</tspan><tspan class="cls-8" x="840.67" y="388.4">e</tspan><tspan class="cls-9" x="846.65" y="388.4">x;</tspan><tspan x="788.67" y="402.8" xml:space="preserve">  justif</tspan><tspan class="cls-5" x="818.32" y="402.8">y</tspan><tspan class="cls-6" x="823.92" y="402.8">-</tspan><tspan class="cls-12" x="827.82" y="402.8">c</tspan><tspan x="833.13" y="402.8">o</tspan><tspan class="cls-4" x="839.71" y="402.8">n</tspan><tspan class="cls-12" x="846.33" y="402.8">t</tspan><tspan class="cls-9" x="850.23" y="402.8">e</tspan><tspan class="cls-5" x="856.24" y="402.8">n</tspan><tspan x="862.85" y="402.8">t: </tspan><tspan class="cls-12" x="871.85" y="402.8">c</tspan><tspan x="877.15" y="402.8">e</tspan><tspan class="cls-4" x="883.16" y="402.8">n</tspan><tspan class="cls-12" x="889.78" y="402.8">t</tspan><tspan class="cls-9" x="893.68" y="402.8">e</tspan><tspan class="cls-7" x="899.69" y="402.8">r</tspan><tspan class="cls-9" x="903.72" y="402.8">;</tspan><tspan x="788.67" y="417.2" xml:space="preserve">  fl</tspan><tspan class="cls-10" x="800.03" y="417.2">e</tspan><tspan class="cls-2" x="806.01" y="417.2">x</tspan><tspan class="cls-11" x="811.49" y="417.2">-</tspan><tspan x="815.39" y="417.2">di</tspan><tspan class="cls-15" x="824.97" y="417.2">r</tspan><tspan x="828.77" y="417.2">e</tspan><tspan class="cls-13" x="834.78" y="417.2">c</tspan><tspan x="840.31" y="417.2">tion: </tspan><tspan class="cls-2" x="865.37" y="417.2">c</tspan><tspan x="870.67" y="417.2">olumn;</tspan></text>
</svg>